<svg width="313" height="138" viewBox="0 0 313 138" fill="none" xmlns="http://www.w3.org/2000/svg">
<ellipse cx="57.5" cy="69" rx="57.5" ry="69" fill="#FA0404" fill-opacity="0.7"/>
<path d="M94.7074 42.9091H103.074V88.6548C103.074 93.3778 101.961 97.5948 99.734 101.306C97.53 104.994 94.415 107.907 90.3892 110.043C86.3634 112.157 81.6404 113.214 76.2202 113.214C70.8 113.214 66.0769 112.157 62.0511 110.043C58.0253 107.907 54.8991 104.994 52.6726 101.306C50.4685 97.5948 49.3665 93.3778 49.3665 88.6548V42.9091H57.733V87.9801C57.733 91.3537 58.4751 94.3562 59.9595 96.9876C61.4439 99.5965 63.558 101.654 66.3018 103.161C69.0682 104.646 72.3743 105.388 76.2202 105.388C80.0661 105.388 83.3722 104.646 86.1385 103.161C88.9048 101.654 91.0189 99.5965 92.4808 96.9876C93.9652 94.3562 94.7074 91.3537 94.7074 87.9801V42.9091Z" fill="white"/>
<path d="M120.366 110V40.9091H143.712C149.132 40.9091 153.563 41.8874 157.004 43.8441C160.467 45.7783 163.031 48.3984 164.695 51.7045C166.36 55.0107 167.192 58.6991 167.192 62.7699C167.192 66.8407 166.36 70.5404 164.695 73.869C163.054 77.1976 160.512 79.8514 157.071 81.8306C153.63 83.7873 149.222 84.7656 143.847 84.7656H127.114V77.3438H143.577C147.288 77.3438 150.268 76.7028 152.517 75.4208C154.766 74.1388 156.396 72.4071 157.408 70.2255C158.443 68.0214 158.96 65.5362 158.96 62.7699C158.96 60.0036 158.443 57.5296 157.408 55.348C156.396 53.1664 154.754 51.4571 152.483 50.2202C150.211 48.9607 147.198 48.331 143.442 48.331H128.733V110H120.366ZM180.669 40.9091H190.655L214.135 98.2599H214.945L238.425 40.9091H248.411V110H240.584V57.5071H239.909L218.318 110H210.762L189.171 57.5071H188.496V110H180.669V40.9091ZM302.97 58.1818C302.565 54.7633 300.923 52.1094 298.044 50.2202C295.166 48.331 291.635 47.3864 287.451 47.3864C284.393 47.3864 281.716 47.8812 279.422 48.8707C277.151 49.8603 275.374 51.221 274.092 52.9528C272.833 54.6845 272.203 56.6525 272.203 58.8565C272.203 60.7008 272.641 62.2863 273.519 63.6133C274.418 64.9177 275.565 66.0085 276.96 66.8857C278.354 67.7403 279.816 68.4487 281.345 69.011C282.875 69.5508 284.28 69.9893 285.562 70.3267L292.579 72.2159C294.379 72.6882 296.38 73.3404 298.584 74.1726C300.811 75.0047 302.936 76.1405 304.96 77.5799C307.007 78.9968 308.694 80.8185 310.021 83.0451C311.348 85.2717 312.011 88.0043 312.011 91.2429C312.011 94.9763 311.033 98.3499 309.076 101.364C307.142 104.377 304.308 106.773 300.575 108.549C296.864 110.326 292.354 111.214 287.047 111.214C282.099 111.214 277.814 110.416 274.193 108.819C270.595 107.222 267.761 104.996 265.692 102.14C263.645 99.2833 262.487 95.9659 262.217 92.1875H270.853C271.078 94.7964 271.955 96.9555 273.485 98.6648C275.037 100.352 276.993 101.611 279.355 102.443C281.739 103.253 284.303 103.658 287.047 103.658C290.24 103.658 293.108 103.14 295.649 102.106C298.191 101.049 300.204 99.5869 301.688 97.7202C303.172 95.831 303.915 93.6269 303.915 91.108C303.915 88.8139 303.274 86.9472 301.992 85.5078C300.71 84.0684 299.023 82.8989 296.931 81.9993C294.84 81.0997 292.579 80.3125 290.15 79.6378L281.649 77.2088C276.251 75.657 271.978 73.4416 268.829 70.5629C265.681 67.6841 264.106 63.9169 264.106 59.2614C264.106 55.393 265.152 52.0194 267.244 49.1406C269.358 46.2393 272.192 43.9903 275.745 42.3935C279.321 40.7741 283.313 39.9645 287.721 39.9645C292.174 39.9645 296.133 40.7629 299.596 42.3597C303.06 43.9341 305.804 46.0932 307.828 48.837C309.874 51.5808 310.954 54.6958 311.066 58.1818H302.97Z" fill="white"/>
</svg>
